<?xml version="1.0" encoding="UTF-8"?>

<svg  xmlns="http://www.w3.org/2000/svg"
    xmlns:xlink="http://www.w3.org/1999/xlink" 
    viewBox="0 0 48 48">
<defs>
    <ref id="color" param="color" default="black" />
</defs>
  <g id="Logo" data-name="Logo">
    <g>
      <path fill="param(color)" d="M11.82,19.22c0,.38.32.63.86.63.51,0,.95-.23,1.12-.71v-.54h-1.04c-.71,0-.94.26-.94.62Z"/>
      <path fill="param(color)" d="M24,0C10.75,0,0,10.75,0,24s10.75,24,24,24,24-10.75,24-24S37.25,0,24,0ZM39.14,17.17c0-1,.9-1.7,2.43-1.7.72,0,1.52.17,2.02.46l-.51,1.08c-.52-.29-1.04-.39-1.51-.39-.68,0-.98.21-.98.49,0,.9,3.17.03,3.17,2.1,0,.98-.91,1.67-2.48,1.67-.89,0-1.79-.24-2.28-.57l.51-1.09c.47.3,1.18.51,1.83.51.7,0,.97-.19.97-.48,0-.86-3.17.02-3.17-2.08ZM23.36,15.47c1.1,0,1.97.48,2.35,1.34l-1.18.63c-.28-.5-.7-.72-1.18-.72-.77,0-1.38.54-1.38,1.46s.61,1.46,1.38,1.46c.48,0,.9-.21,1.18-.72l1.18.64c-.38.84-1.25,1.33-2.35,1.33-1.71,0-2.93-1.12-2.93-2.71s1.22-2.71,2.93-2.71ZM16.7,15.55h1.46v.69c.37-.51,1-.77,1.81-.77v1.41c-.13,0-.22-.02-.34-.02-.84,0-1.4.46-1.4,1.46v2.48h-1.52v-5.25ZM12.59,16.68c-.56,0-1.13.19-1.51.49l-.55-1.06c.58-.41,1.43-.63,2.27-.63,1.6,0,2.53.74,2.53,2.33v3h-1.43v-.65c-.28.48-.83.73-1.6.73-1.23,0-1.96-.68-1.96-1.59s.65-1.57,2.26-1.57h1.21c0-.65-.39-1.04-1.21-1.04ZM9.02,28.3h-1.52v-2.77c0-.85-.39-1.24-1.06-1.24-.73,0-1.26.45-1.26,1.42v2.6h-1.52v-5.25h1.46v.62c.41-.45,1.03-.69,1.74-.69,1.24,0,2.18.72,2.18,2.32v3.01ZM15.57,26.1h-3.97c.15.65.7,1.05,1.5,1.05.56,0,.96-.17,1.32-.51l.81.88c-.49.56-1.22.85-2.17.85-1.82,0-3-1.14-3-2.71s1.2-2.71,2.8-2.71,2.73,1.04,2.73,2.72c0,.12-.02.28-.03.41ZM18.76,28.38c-1.24,0-1.96-.63-1.96-1.88v-2.16h-.81v-1.17h.81v-1.28h1.52v1.28h1.31v1.17h-1.31v2.14c0,.45.24.69.65.69.22,0,.45-.07.62-.2l.41,1.07c-.31.22-.77.33-1.24.33ZM27.3,28.3h-1.46l-1.18-3.26-1.22,3.26h-1.46l-1.89-5.25h1.44l1.24,3.55,1.29-3.55h1.29l1.25,3.55,1.28-3.55h1.35l-1.9,5.25ZM28.08,18.2v2.6h-1.52v-7.25h1.52v2.54c.41-.41,1-.62,1.67-.62,1.24,0,2.18.72,2.18,2.32v3.01h-1.52v-2.77c0-.85-.39-1.24-1.06-1.24-.73,0-1.26.45-1.26,1.42ZM32.27,28.38c-1.67,0-2.89-1.12-2.89-2.71s1.22-2.71,2.89-2.71,2.88,1.12,2.88,2.71-1.21,2.71-2.88,2.71ZM32.97,18.17c0-1.57,1.2-2.71,2.8-2.71s2.73,1.04,2.73,2.72c0,.12-.02.28-.03.41h-3.97c.15.65.7,1.05,1.5,1.05.56,0,.96-.17,1.32-.51l.81.88c-.49.56-1.22.85-2.17.85-1.82,0-3-1.14-3-2.71ZM39.43,24.37c-.13,0-.22-.02-.34-.02-.84,0-1.4.46-1.4,1.46v2.48h-1.52v-5.25h1.46v.69c.37-.51,1-.77,1.81-.77v1.41ZM42.59,26.24l-.73.72v1.34h-1.52v-7.25h1.52v4.1l2.23-2.11h1.82l-2.19,2.23,2.38,3.03h-1.85l-1.66-2.06Z"/>
      <path fill="param(color)" d="M32.27,24.22c-.76,0-1.35.55-1.35,1.46s.59,1.46,1.35,1.46,1.34-.55,1.34-1.46-.58-1.46-1.34-1.46Z"/>
      <path fill="param(color)" d="M12.88,24.12c-.69,0-1.19.42-1.3,1.09h2.59c-.11-.66-.61-1.09-1.29-1.09Z"/>
      <path fill="param(color)" d="M35.78,16.62c-.69,0-1.19.42-1.3,1.09h2.59c-.11-.66-.61-1.09-1.29-1.09Z"/>
    </g>
  </g>
   <script type="text/ecmascript" xlink:href="https://dev.w3.org/SVG/modules/ref/master/ref2.js"></script>
</svg>
