<?xml version="1.0" encoding="UTF-8"?>
<svg id="Layer_1" xmlns="http://www.w3.org/2000/svg" xmlns:xlink="http://www.w3.org/1999/xlink" version="1.1" viewBox="0 0 706.7 182">
  <!-- Generator: Adobe Illustrator 29.8.1, SVG Export Plug-In . SVG Version: 2.1.1 Build 2)  -->
  <defs>
    <style>
      .st0 {
        fill: url(#linear-gradient1);
      }

      .st1 {
        fill: url(#linear-gradient);
      }
    </style>
    <linearGradient id="linear-gradient" x1="49.8" y1="172.5" x2="49.8" y2="8.8" gradientUnits="userSpaceOnUse">
      <stop offset="0" stop-color="#ffa22a"/>
      <stop offset="1" stop-color="#ff891f"/>
    </linearGradient>
    <linearGradient id="linear-gradient1" x1="142.2" y1="172.5" x2="142.2" y2="8.9" xlink:href="#linear-gradient"/>
  </defs>
  <g id="words">
    <path d="M298.2,15.5c5.3,2.8,9.4,6.8,12.3,12.1,2.9,5.3,4.3,11.7,4.3,19.1v39.7h-20.8v-16.3h-28.7v16.3h-20.5v-39.7c0-7.4,1.4-13.8,4.3-19.1,2.9-5.3,7-9.3,12.3-12.1s11.4-4.1,18.3-4.1,13,1.4,18.3,4.1h0ZM294,54v-9.1c0-5.4-1.3-9.5-3.9-12.2-2.6-2.7-6-4.1-10.4-4.1s-7.9,1.4-10.5,4.1c-2.6,2.7-3.9,6.8-3.9,12.2v9.1h28.7,0Z"/>
    <path d="M361,66.8h-11.3v19.5h-20.8V12.8h33.6c20.1,0,32.7,10.4,32.7,27.2s-5.2,18.8-14.4,23.2l15.9,23.1h-22.3l-13.4-19.5h0ZM361.3,29.2h-11.5v21.5h11.5c8.6,0,12.9-4,12.9-10.7s-4.3-10.8-12.9-10.8h0Z"/>
    <path d="M402.9,49.6c0-22.4,17.1-38.2,40.4-38.2s24.5,4.9,31.6,13.9l-13.2,12c-4.6-5.6-10.3-8.6-17.3-8.6-12.1,0-20.5,8.4-20.5,21s8.4,21,20.5,21,12.7-3,17.3-8.6l13.2,12c-7.2,8.9-18.1,13.9-31.6,13.9-23.3,0-40.4-15.9-40.4-38.2h0Z"/>
    <path d="M554.1,12.8v73.5h-20.8v-28.7h-28.3v28.7h-20.8V12.8h20.8v27.6h28.3V12.8h20.8Z"/>
    <path d="M627.8,70.2v16.1h-59V12.8h57.7v16.1h-37.1v12.4h32.7v15.5h-32.7v13.5h38.5,0Z"/>
    <path d="M634.2,79.7l6.8-15.3c6.5,4.3,15.8,7.3,24.3,7.3s12-2.4,12-6c0-11.7-41.8-3.2-41.8-30.5s10.7-23.8,32.6-23.8,19.4,2.2,26.7,6.4l-6.4,15.4c-7-3.8-14-5.7-20.4-5.7s-11.9,2.9-11.9,6.6c0,11.2,41.7,2.8,41.7,29.9s-10.7,23.7-32.6,23.7-24.1-3.2-31-8.1h0Z"/>
    <path d="M299,111.1v57.8h-13.5l-25.5-30.8v30.8h-16v-57.8h13.5l25.5,30.8v-30.8h16Z"/>
    <path d="M356.9,156.2v12.6h-46.4v-57.8h45.3v12.6h-29.1v9.7h25.7v12.2h-25.7v10.6h30.2Z"/>
    <path d="M378.3,124h-17.7v-13h51.8v13h-17.7v44.8h-16.3v-44.8Z"/>
    <path d="M507.6,111.1l-18.7,57.8h-17.5l-11.1-35.2-11.5,35.2h-17.5l-18.7-57.8h16.8l11.6,36.9,12.2-36.9h15l11.6,37.2,12.1-37.2h15.6,0Z"/>
    <path d="M509.8,140c0-17.3,13.6-30,32.1-30s32.1,12.7,32.1,30-13.6,30-32.1,30-32.1-12.7-32.1-30ZM557.5,140c0-10-6.8-16.5-15.6-16.5s-15.6,6.5-15.6,16.5,6.8,16.5,15.6,16.5,15.6-6.5,15.6-16.5Z"/>
    <path d="M607.8,153.5h-8.9v15.4h-16.3v-57.8h26.4c15.8,0,25.7,8.2,25.7,21.4s-4.1,14.8-11.3,18.2l12.4,18.2h-17.5l-10.5-15.4h0ZM608,123.9h-9.1v16.9h9.1c6.8,0,10.2-3.1,10.2-8.4s-3.4-8.5-10.2-8.5Z"/>
    <path d="M665.9,147.9l-6.1,6.5v14.5h-16.2v-57.8h16.2v24l22.4-24h18l-23.6,25.6,24.8,32.2h-19l-16.5-21h0Z"/>
  </g>
  <g>
    <path class="st1" d="M53.4,62.5c9.1-12.7,21.9-19.4,35.2-20.9V8.8C48.7,12.2,13.4,43.6,10.9,88.2v84.3h29.1l26.9-26.7h21.2v-61.9l-44.3,42c.9-22.3-4.3-44,9.6-63.4Z"/>
    <path class="st0" d="M137.3,19.2c-10.9-6-22.3-9.3-33.6-10.4v33.1c22.1,3.6,42.1,20.6,44.1,46.7l-.2,37.3-44.1-42v61.8h20.6c0,.1,27.1,26.8,27.1,26.8h29.6v-85.2c-2-28.7-18.4-54.3-43.5-68.1Z"/>
  </g>
</svg>