<?xml version="1.0" encoding="UTF-8"?>
<svg id="Layer_1" data-name="Layer 1" xmlns="http://www.w3.org/2000/svg" xmlns:xlink="http://www.w3.org/1999/xlink" viewBox="0 0 690.51 164">
  <defs>
    <style>
      .orangeFill {
        fill: url(#linear-gradient);
      }
    </style>
    <linearGradient id="linear-gradient" x1="84.95" y1="256.99" x2="84.95" y2="92.99" gradientTransform="translate(0 256.99) scale(1 -1)" gradientUnits="userSpaceOnUse">
      <stop offset="0" stop-color="#ffa22a"/>
      <stop offset="1" stop-color="#ff891f"/>
    </linearGradient>
  </defs>
  <path id="ArchesLogo" className="orangeFill" d="M169.91,164h-29.6l-27.11-26.65-20.56-.13v-61.79l44.06,42.02.21-37.28c-3.7-47.42-66.68-64.88-94.36-26.13-13.84,19.37-8.64,41.07-9.57,63.41l44.28-42.02v61.79l-21.23.12-26.9,26.65H0v-84.28C3.51,17.17,71.25-19.39,126.38,10.73c25.17,13.76,41.53,39.35,43.53,68.09v85.18Z"/>
  <g id="TypeFace">
    <path d="M287.31,6.98c5.3,2.78,9.39,6.79,12.3,12.09,2.91,5.3,4.35,11.65,4.35,19.06v39.69h-20.78v-16.28h-28.68v16.28h-20.5v-39.69c0-7.43,1.44-13.79,4.35-19.06,2.91-5.3,7-9.31,12.3-12.09s11.4-4.14,18.34-4.14,13.04,1.39,18.34,4.14h0ZM283.14,45.46v-9.13c0-5.4-1.29-9.47-3.88-12.19-2.6-2.73-6.04-4.09-10.39-4.09s-7.92,1.36-10.49,4.09c-2.6,2.73-3.88,6.79-3.88,12.19v9.13h28.68-.03Z"/>
    <path d="M350.15,58.27h-11.34v19.55h-20.78V4.3h33.62c20.06,0,32.67,10.39,32.67,27.21,0,10.83-5.25,18.8-14.38,23.2l15.87,23.1h-22.28l-13.35-19.55h-.03ZM350.38,20.66h-11.55v21.53h11.55c8.62,0,12.91-3.99,12.91-10.7s-4.3-10.83-12.91-10.83h0Z"/>
    <path d="M391.97,41.06c0-22.38,17.13-38.22,40.44-38.22,13.56,0,24.46,4.94,31.61,13.86l-13.22,11.99c-4.63-5.56-10.29-8.62-17.34-8.62-12.09,0-20.48,8.41-20.48,21.02s8.41,21.02,20.48,21.02c7.05,0,12.71-3.04,17.34-8.62l13.22,11.99c-7.15,8.93-18.06,13.86-31.61,13.86-23.31,0-40.44-15.87-40.44-38.22v-.05Z"/>
    <path d="M543.22,4.28v73.52h-20.81v-28.68h-28.35v28.68h-20.78V4.28h20.78v27.63h28.35V4.28h20.81Z"/>
    <path d="M616.95,61.74v16.08h-59.03V4.3h57.67v16.08h-37.07v12.4h32.67v15.54h-32.67v13.45h38.46l-.03-.03Z"/>
    <path d="M623.35,71.18l6.82-15.33c6.51,4.3,15.77,7.25,24.26,7.25s11.99-2.42,11.99-5.99c0-11.65-41.8-3.16-41.8-30.46,0-13.12,10.73-23.85,32.57-23.85,9.57,0,19.45,2.21,26.67,6.41l-6.41,15.43c-7.05-3.78-13.97-5.66-20.37-5.66-8.72,0-11.86,2.93-11.86,6.61,0,11.24,41.7,2.83,41.7,29.94,0,12.81-10.73,23.74-32.57,23.74-12.09,0-24.05-3.24-31-8.08v-.03Z"/>
    <path d="M288.1,102.56v57.77h-13.45l-25.49-30.79v30.79h-16.03v-57.77h13.45l25.49,30.79v-30.79h16.03Z"/>
    <path d="M346.03,147.71v12.63h-46.38v-57.77h45.32v12.63h-29.14v9.75h25.67v12.22h-25.67v10.57h30.2v-.03Z"/>
    <path d="M367.41,115.5h-17.75v-12.96h51.75v12.96h-17.67v44.81h-16.33v-44.81Z"/>
    <path d="M496.74,102.56l-18.73,57.77h-17.49l-11.06-35.16-11.55,35.16h-17.49l-18.73-57.77h16.85l11.63,36.89,12.22-36.89h15.02l11.63,37.22,12.14-37.22h15.59-.03Z"/>
    <path d="M498.88,131.45c0-17.34,13.63-30.04,32.1-30.04s32.1,12.71,32.1,30.04-13.61,30.04-32.1,30.04-32.1-12.71-32.1-30.04ZM546.59,131.45c0-9.98-6.84-16.51-15.59-16.51s-15.61,6.51-15.61,16.51,6.84,16.51,15.61,16.51,15.59-6.51,15.59-16.51Z"/>
    <path d="M596.93,144.98h-8.93v15.36h-16.33v-57.77h26.42c15.77,0,25.67,8.18,25.67,21.38,0,8.49-4.12,14.77-11.29,18.24l12.45,18.16h-17.49l-10.47-15.36h-.03ZM597.09,115.42h-9.08v16.93h9.08c6.77,0,10.16-3.14,10.16-8.41s-3.4-8.51-10.16-8.51Z"/>
    <path d="M655.02,139.37l-6.12,6.51v14.46h-16.18v-57.77h16.18v24.03l22.38-24.03h18.01l-23.61,25.59,24.85,32.18h-18.98l-16.51-20.96h0Z"/>
  </g>
</svg>